<mxfile host="Electron" agent="Mozilla/5.0 (Macintosh; Intel Mac OS X 10_15_7) AppleWebKit/537.36 (KHTML, like Gecko) draw.io/26.0.16 Chrome/132.0.6834.196 Electron/34.2.0 Safari/537.36" version="26.0.16">
  <diagram name="Page-1" id="jtkjetc9M8YAjgjAZ3d0">
    <mxGraphModel dx="2206" dy="1395" grid="1" gridSize="10" guides="1" tooltips="1" connect="1" arrows="1" fold="1" page="1" pageScale="1" pageWidth="1200" pageHeight="1920" math="0" shadow="0">
      <root>
        <mxCell id="0" />
        <mxCell id="1" parent="0" />
        <mxCell id="IwOG8lvMpm1gIUN0wVco-1" value="" style="rounded=0;whiteSpace=wrap;html=1;fillColor=none;strokeColor=default;dashed=1;" vertex="1" parent="1">
          <mxGeometry x="40" y="480" width="200" height="550" as="geometry" />
        </mxCell>
        <mxCell id="IwOG8lvMpm1gIUN0wVco-2" value="&lt;font style=&quot;font-size: 24px;&quot;&gt;Sources&lt;/font&gt;" style="rounded=1;whiteSpace=wrap;html=1;strokeColor=none;" vertex="1" parent="1">
          <mxGeometry x="80" y="450" width="120" height="40" as="geometry" />
        </mxCell>
        <mxCell id="IwOG8lvMpm1gIUN0wVco-13" style="edgeStyle=orthogonalEdgeStyle;rounded=0;orthogonalLoop=1;jettySize=auto;html=1;entryX=0;entryY=0.5;entryDx=0;entryDy=0;" edge="1" parent="1" source="IwOG8lvMpm1gIUN0wVco-4" target="IwOG8lvMpm1gIUN0wVco-10">
          <mxGeometry relative="1" as="geometry">
            <Array as="points">
              <mxPoint x="250" y="640" />
              <mxPoint x="250" y="560" />
            </Array>
          </mxGeometry>
        </mxCell>
        <mxCell id="IwOG8lvMpm1gIUN0wVco-14" style="edgeStyle=orthogonalEdgeStyle;rounded=0;orthogonalLoop=1;jettySize=auto;html=1;entryX=0;entryY=0.5;entryDx=0;entryDy=0;" edge="1" parent="1" source="IwOG8lvMpm1gIUN0wVco-4" target="IwOG8lvMpm1gIUN0wVco-11">
          <mxGeometry relative="1" as="geometry" />
        </mxCell>
        <mxCell id="IwOG8lvMpm1gIUN0wVco-15" style="edgeStyle=orthogonalEdgeStyle;rounded=0;orthogonalLoop=1;jettySize=auto;html=1;entryX=0;entryY=0.5;entryDx=0;entryDy=0;" edge="1" parent="1" source="IwOG8lvMpm1gIUN0wVco-4" target="IwOG8lvMpm1gIUN0wVco-12">
          <mxGeometry relative="1" as="geometry">
            <Array as="points">
              <mxPoint x="250" y="640" />
              <mxPoint x="250" y="720" />
            </Array>
          </mxGeometry>
        </mxCell>
        <mxCell id="IwOG8lvMpm1gIUN0wVco-4" value="&lt;font style=&quot;font-size: 20px;&quot;&gt;CRM&lt;/font&gt;" style="image;aspect=fixed;html=1;points=[];align=center;fontSize=12;image=img/lib/azure2/general/Folder_Blank.svg;" vertex="1" parent="1">
          <mxGeometry x="105.5" y="612" width="69" height="56.00000000000001" as="geometry" />
        </mxCell>
        <mxCell id="IwOG8lvMpm1gIUN0wVco-19" style="edgeStyle=orthogonalEdgeStyle;rounded=0;orthogonalLoop=1;jettySize=auto;html=1;entryX=0;entryY=0.5;entryDx=0;entryDy=0;" edge="1" parent="1" source="IwOG8lvMpm1gIUN0wVco-5" target="IwOG8lvMpm1gIUN0wVco-16">
          <mxGeometry relative="1" as="geometry">
            <Array as="points">
              <mxPoint x="250" y="890" />
              <mxPoint x="250" y="810" />
            </Array>
          </mxGeometry>
        </mxCell>
        <mxCell id="IwOG8lvMpm1gIUN0wVco-20" style="edgeStyle=orthogonalEdgeStyle;rounded=0;orthogonalLoop=1;jettySize=auto;html=1;entryX=0;entryY=0.5;entryDx=0;entryDy=0;" edge="1" parent="1" source="IwOG8lvMpm1gIUN0wVco-5" target="IwOG8lvMpm1gIUN0wVco-17">
          <mxGeometry relative="1" as="geometry" />
        </mxCell>
        <mxCell id="IwOG8lvMpm1gIUN0wVco-21" style="edgeStyle=orthogonalEdgeStyle;rounded=0;orthogonalLoop=1;jettySize=auto;html=1;entryX=0;entryY=0.5;entryDx=0;entryDy=0;" edge="1" parent="1" source="IwOG8lvMpm1gIUN0wVco-5" target="IwOG8lvMpm1gIUN0wVco-18">
          <mxGeometry relative="1" as="geometry">
            <Array as="points">
              <mxPoint x="250" y="890" />
              <mxPoint x="250" y="970" />
            </Array>
          </mxGeometry>
        </mxCell>
        <mxCell id="IwOG8lvMpm1gIUN0wVco-5" value="&lt;font style=&quot;font-size: 20px;&quot;&gt;ERP&lt;/font&gt;" style="image;aspect=fixed;html=1;points=[];align=center;fontSize=12;image=img/lib/azure2/general/Folder_Blank.svg;" vertex="1" parent="1">
          <mxGeometry x="105.5" y="862" width="69" height="56.00000000000001" as="geometry" />
        </mxCell>
        <mxCell id="IwOG8lvMpm1gIUN0wVco-8" value="" style="rounded=1;whiteSpace=wrap;html=1;dashed=1;fillStyle=hatch;fillColor=#ffe6cc;strokeColor=#d79b00;arcSize=6;" vertex="1" parent="1">
          <mxGeometry x="270" y="510" width="230" height="520" as="geometry" />
        </mxCell>
        <mxCell id="IwOG8lvMpm1gIUN0wVco-9" value="&lt;b&gt;&lt;font style=&quot;font-size: 20px;&quot;&gt;Bronze Layer&lt;/font&gt;&lt;/b&gt;" style="rounded=1;whiteSpace=wrap;html=1;fillColor=#ffe6cc;strokeColor=#d79b00;" vertex="1" parent="1">
          <mxGeometry x="290" y="460" width="200" height="40" as="geometry" />
        </mxCell>
        <mxCell id="IwOG8lvMpm1gIUN0wVco-10" value="&lt;span style=&quot;font-size: 20px;&quot;&gt;crm_sales_details&lt;/span&gt;" style="rounded=1;whiteSpace=wrap;html=1;fillColor=#ffe6cc;strokeColor=#d79b00;" vertex="1" parent="1">
          <mxGeometry x="290" y="540" width="200" height="40" as="geometry" />
        </mxCell>
        <mxCell id="IwOG8lvMpm1gIUN0wVco-11" value="&lt;span style=&quot;font-size: 20px;&quot;&gt;crm_cust_info&lt;/span&gt;" style="rounded=1;whiteSpace=wrap;html=1;fillColor=#ffe6cc;strokeColor=#d79b00;" vertex="1" parent="1">
          <mxGeometry x="290" y="620" width="200" height="40" as="geometry" />
        </mxCell>
        <mxCell id="IwOG8lvMpm1gIUN0wVco-12" value="&lt;span style=&quot;font-size: 20px;&quot;&gt;crm_prd_info&lt;/span&gt;" style="rounded=1;whiteSpace=wrap;html=1;fillColor=#ffe6cc;strokeColor=#d79b00;" vertex="1" parent="1">
          <mxGeometry x="290" y="700" width="200" height="40" as="geometry" />
        </mxCell>
        <mxCell id="IwOG8lvMpm1gIUN0wVco-16" value="&lt;span style=&quot;font-size: 20px;&quot;&gt;erp_cust_az12&lt;/span&gt;" style="rounded=1;whiteSpace=wrap;html=1;fillColor=#ffe6cc;strokeColor=#d79b00;" vertex="1" parent="1">
          <mxGeometry x="290" y="790" width="200" height="40" as="geometry" />
        </mxCell>
        <mxCell id="IwOG8lvMpm1gIUN0wVco-17" value="&lt;span style=&quot;font-size: 20px;&quot;&gt;erp_loc_a101&lt;/span&gt;" style="rounded=1;whiteSpace=wrap;html=1;fillColor=#ffe6cc;strokeColor=#d79b00;" vertex="1" parent="1">
          <mxGeometry x="290" y="870" width="200" height="40" as="geometry" />
        </mxCell>
        <mxCell id="IwOG8lvMpm1gIUN0wVco-18" value="&lt;span style=&quot;font-size: 20px;&quot;&gt;erp_px_cat_g1v2&lt;/span&gt;" style="rounded=1;whiteSpace=wrap;html=1;fillColor=#ffe6cc;strokeColor=#d79b00;" vertex="1" parent="1">
          <mxGeometry x="290" y="950" width="200" height="40" as="geometry" />
        </mxCell>
      </root>
    </mxGraphModel>
  </diagram>
</mxfile>
